<?xml version="1.0" encoding="utf-8"?><svg version="1.1" id="Layer_1" xmlns="http://www.w3.org/2000/svg" xmlns:xlink="http://www.w3.org/1999/xlink" x="0px" y="0px" viewBox="0 0 116.86 122.88" style="enable-background:new 0 0 116.86 122.88" xml:space="preserve"><style type="text/css">.st0{fill-rule:evenodd;clip-rule:evenodd;}</style><g><path class="st0" d="M94.7,33.16c-0.28,1.97-0.6,3.99-0.89,5.93l0.44,4.89c1.2,0.18,2.09,0.91,2.71,2.02 c0.77,1.38,0.99,3.41,0.79,5.61c-0.19,2.07-0.73,4.36-1.53,6.41c-1.41,3.6-3.66,6.58-6.31,7.01c-0.27,0.87-0.54,1.78-0.79,2.65 c-1.35,4.57-2.41,8.15-5.2,11.68c-1.25,1.58-2.64,3.01-4.14,4.28c4.12,4.04,5.73,4.64,10.16,6.31c1.09,0.41,2.32,0.87,3.46,1.32 l0,0c0.04,0.01,0.07,0.03,0.11,0.05c5.66,3.02,10.61,6.85,14.59,11.8c3.97,4.94,6.97,10.97,8.72,18.4c0.03,0.1,0.04,0.2,0.04,0.3 c0,0.58-0.47,1.06-1.06,1.06H1.05v0c-0.07,0-0.14-0.01-0.21-0.02c-0.57-0.12-0.94-0.68-0.82-1.25c1.46-6.93,3.95-12.93,7.61-17.87 c3.67-4.96,8.5-8.85,14.62-11.54l0,0c1.13-0.53,2.36-1.07,3.46-1.56c4.71-2.09,6.94-3.08,11.52-7.79c-1.08-0.96-2.11-1.99-3.05-3.1 c-3.4-3.98-4.81-8.18-6.64-13.64c-0.2-0.6-0.41-1.22-0.6-1.79c-2.34-0.1-4.29-2.09-5.67-4.83c-1.08-2.14-1.83-4.78-2.11-7.21 c-0.29-2.57-0.04-5,0.9-6.55c0.66-1.08,1.57-1.77,2.77-1.91l0.43-4.34c-0.45-2.66-0.95-5.42-1.32-8.07 C16.21-8.72,101.32-12.8,94.7,33.16L94.7,33.16z M70.13,57.55c-0.03,0.16-0.05,0.32-0.05,0.49c0,1.32,1.07,2.39,2.39,2.39 s2.39-1.07,2.39-2.39c0-0.31-0.06-0.61-0.17-0.88c1.24,0.09,2.5,0.34,3.76,0.76c0.59,0.19,1.21-0.2,1.38-0.88 c0.17-0.68-0.18-1.38-0.77-1.57c-1.81-0.59-3.63-0.89-5.44-0.88c-1.81,0-3.6,0.3-5.37,0.89c-0.59,0.19-0.93,0.9-0.76,1.57 c0.17,0.67,0.79,1.06,1.38,0.86C69.3,57.77,69.72,57.65,70.13,57.55L70.13,57.55z M89.14,53.87c-0.28-0.48-0.11-1.1,0.37-1.38 c0.48-0.28,1.1-0.11,1.38,0.37c0.83,1.45,0.97,2.92-0.04,4.41c-0.31,0.46-0.94,0.58-1.4,0.27c-0.46-0.31-0.58-0.94-0.27-1.4 C89.67,55.41,89.58,54.65,89.14,53.87L89.14,53.87z M25.59,52.86c0.28-0.48,0.9-0.65,1.38-0.37c0.48,0.28,0.65,0.9,0.37,1.38 c-0.45,0.78-0.54,1.54-0.04,2.27c0.31,0.46,0.19,1.09-0.27,1.4c-0.46,0.31-1.09,0.19-1.4-0.27C24.62,55.78,24.76,54.31,25.59,52.86 L25.59,52.86z M54.66,69.16c-0.52-0.47-0.56-1.27-0.08-1.79c0.47-0.52,1.27-0.55,1.79-0.08c0.68,0.62,1.32,0.91,1.91,0.91 c0.61-0.01,1.26-0.32,1.96-0.93c0.53-0.46,1.33-0.4,1.78,0.13c0.46,0.53,0.4,1.33-0.13,1.78c-1.15,1-2.35,1.53-3.59,1.54 C57.04,70.74,55.83,70.23,54.66,69.16L54.66,69.16z M49.24,77.65c-0.65-0.52-0.76-1.48-0.24-2.13c0.52-0.65,1.48-0.76,2.13-0.24 c2.67,2.14,5.17,3.19,7.48,3.18c2.25-0.01,4.42-1.05,6.51-3.08c0.6-0.58,1.56-0.57,2.15,0.03c0.58,0.6,0.57,1.56-0.03,2.15 c-2.67,2.6-5.55,3.93-8.63,3.94C55.6,81.5,52.48,80.23,49.24,77.65L49.24,77.65z M36.91,51.63c-0.54,0.44-1.34,0.37-1.78-0.17 c-0.44-0.54-0.37-1.34,0.17-1.78c2.73-2.26,7.1-1.47,10.84-0.8c1.58,0.28,3.04,0.55,4.05,0.51c0.7-0.02,1.28,0.52,1.31,1.22 c0.02,0.7-0.52,1.28-1.22,1.31c-1.27,0.05-2.86-0.24-4.59-0.55C42.48,50.79,38.74,50.12,36.91,51.63L36.91,51.63z M81.42,49.42 c0.54,0.44,0.62,1.24,0.17,1.78c-0.44,0.54-1.24,0.62-1.78,0.17c-1.83-1.51-5.58-0.84-8.79-0.26c-1.72,0.31-3.31,0.6-4.59,0.55 c-0.7-0.02-1.24-0.61-1.22-1.31s0.61-1.24,1.31-1.22c1.01,0.04,2.47-0.23,4.05-0.51C74.32,47.95,78.69,47.17,81.42,49.42 L81.42,49.42z M38.31,58.15c-0.58,0.23-1.22-0.13-1.42-0.79c-0.2-0.66,0.11-1.39,0.7-1.62c1.81-0.71,3.64-1.04,5.46-1.02 c1.82,0.01,3.62,0.37,5.43,1.02c0.59,0.21,0.91,0.92,0.73,1.59c-0.19,0.67-0.81,1.04-1.4,0.83c-0.41-0.15-0.82-0.28-1.22-0.39 c0.04,0.17,0.06,0.35,0.06,0.53c0,1.32-1.07,2.39-2.39,2.39s-2.39-1.07-2.39-2.39c0-0.36,0.08-0.7,0.22-1.01 C40.82,57.37,39.57,57.66,38.31,58.15L38.31,58.15z M76.64,86.01c-1.13,0.75-2.29,1.42-3.48,2.02c-2.98,2.04-6,2.79-9.51,3.14 c-1.74,0.29-3.45,0.42-5.08,0.38c-0.42-0.01-0.85-0.03-1.28-0.06c-6.27,0.02-11.95-1.28-17.35-5.97c-5.2,5.36-7.12,5.56-13.88,8.68 c6.82,19.57,52.03,26.08,62.93-0.87C82.39,90.61,81.42,90.75,76.64,86.01L76.64,86.01z M91.57,46.34L87.8,48.7l-1.63-11.1 c-8.23,5.13-17.62,7.42-27.84,7.68c-9.79-0.07-19.17-2.22-27.9-7.72L28.64,48.3l-3.31-1.85c-0.36,0.42-0.94,0.62-1.52,0.48 c-0.57-0.14-0.95,0.03-1.17,0.4c-0.57,0.94-0.69,2.67-0.47,4.63c0.24,2.1,0.88,4.36,1.8,6.18c1.03,2.03,2.33,3.46,3.59,3.1l0,0 c0.77-0.22,1.58,0.2,1.84,0.97c0.42,1.22,0.72,2.11,1,2.95c1.73,5.14,3.05,9.1,6.07,12.63c2.78,3.26,6.32,5.82,10.05,7.62 c4.09,1.98,8.37,3.04,12.11,3.12c3.95,0.08,8.42-0.92,12.64-2.95c3.85-1.85,7.47-4.56,10.26-8.09c2.41-3.05,3.4-6.4,4.66-10.65 c0.32-1.09,0.66-2.24,1.11-3.64c0.18-0.78,0.94-1.3,1.75-1.16c1.54,0.27,3.18-2.15,4.34-5.11c0.7-1.81,1.18-3.79,1.34-5.57 c0.15-1.64,0.03-3.05-0.42-3.88c-0.21-0.38-0.57-0.56-1.12-0.44l0,0c-0.06,0.01-0.12,0.02-0.18,0.03 C92.41,47.12,91.86,46.82,91.57,46.34L91.57,46.34z"/></g></svg>